<?xml version="1.0" encoding="UTF-8" standalone="no"?>
<svg
   xmlns:dc="http://purl.org/dc/elements/1.1/"
   xmlns:cc="http://creativecommons.org/ns#"
   xmlns:rdf="http://www.w3.org/1999/02/22-rdf-syntax-ns#"
   xmlns:svg="http://www.w3.org/2000/svg"
   xmlns="http://www.w3.org/2000/svg"
   xmlns:sodipodi="http://sodipodi.sourceforge.net/DTD/sodipodi-0.dtd"
   xmlns:inkscape="http://www.inkscape.org/namespaces/inkscape"
   id="f61e7f2c-3df8-44b9-b514-d2b672d0e0d5"
   data-name="Layer 1"
   width="130.99998"
   height="100.0509"
   viewBox="0 0 1100.99998 666.0509"
   version="1.1"
   sodipodi:docname="browse jobs.svg"
   inkscape:version="0.92.4 (5da689c313, 2019-01-14)">
  <metadata
     id="metadata262">
    <rdf:RDF>
      <cc:Work
         rdf:about="">
        <dc:format>image/svg+xml</dc:format>
        <dc:type
           rdf:resource="http://purl.org/dc/dcmitype/StillImage" />
        <dc:title>dev_focus</dc:title>
      </cc:Work>
    </rdf:RDF>
  </metadata>
  <defs
     id="defs260" />
  <sodipodi:namedview
     pagecolor="#ffffff"
     bordercolor="#666666"
     borderopacity="1"
     objecttolerance="10"
     gridtolerance="10"
     guidetolerance="10"
     inkscape:pageopacity="0"
     inkscape:pageshadow="2"
     inkscape:window-width="1280"
     inkscape:window-height="962"
     id="namedview258"
     showgrid="false"
     inkscape:zoom="1.0490463"
     inkscape:cx="550.5"
     inkscape:cy="333.02545"
     inkscape:window-x="-8"
     inkscape:window-y="-8"
     inkscape:window-maximized="1"
     inkscape:current-layer="f61e7f2c-3df8-44b9-b514-d2b672d0e0d5" />
  <title
     id="title137">dev_focus</title>
  <circle
     cx="633.92942"
     cy="214.02012"
     r="36.39575"
     fill="#2f2e41"
     id="circle139" />
  <path
     d="M693.56939,295.60077a36.40082,36.40082,0,0,1,32.03938,53.66882,36.38708,36.38708,0,1,0-60.45438-39.98247A36.306,36.306,0,0,1,693.56939,295.60077Z"
     transform="translate(-49.50001 -116.97455)"
     fill="#2f2e41"
     id="path141" />
  <ellipse
     cx="561.62909"
     cy="117.51621"
     id="circle143"
     rx="111.20212"
     ry="102.14627"
     style="fill:#2f2e41;stroke-width:0.99687171" />
  <path
     d="M 470.22847,60.458651 A 105.76484,118.74549 0 0 1 616.83153,48.005765 c -0.865,-0.923207 -1.72088,-1.853891 -2.61972,-2.751015 A 105.78387,118.76686 0 0 0 473.64543,222.78127 c 0.89885,0.89712 1.82234,1.74239 2.74029,2.59875 A 105.76494,118.74559 0 0 1 470.22847,60.458651 Z"
     id="path145"
     inkscape:connector-curvature="0"
     style="fill:#2f2e41;stroke-width:1.04840434" />
  <ellipse
     cx="560.24646"
     cy="157.52353"
     id="circle147"
     rx="72.67189"
     ry="57.419941"
     style="fill:#ffb8b8;stroke-width:0.9381116" />
  <path
     d="m 523.21872,184.98793 c 0,0 8.41202,69.43508 -5.0472,76.98237 -13.45921,7.54729 77.39048,18.1135 77.39048,18.1135 0,0 -13.45922,-75.47292 20.18882,-95.09587 z"
     id="path149"
     inkscape:connector-curvature="0"
     style="fill:#ffb8b8;stroke-width:0.87942523" />
  <path
     d="M652.5663,360.81682s26.98248-12.60018-11.87783-8.11216-72.38788-12.72672-72.38788-12.72672-11.77434-11.77849-13.58641.906,5.43623,36.24153-34.42945,39.86568-76.10721-7.2483-90.60382,19.93284-7.2483,144.9661-7.2483,144.9661,27.18114,97.85213,48.92606,112.34874,212.01292-5.43623,212.01292-5.43623L737.73388,554.709V440.54818s-7.2483-39.86568-57.98644-28.99322c0,0-32.61737-7.24831-30.8053-23.557S652.5663,360.81682,652.5663,360.81682Z"
     transform="translate(-49.50001 -116.97455)"
     fill="#d0cde1"
     id="path151" />
  <path
     d="M478.55,727.24542c1.12-4.88,1.87-7.64,1.87-7.64l-.57995-3.97-5.97-40.54-2.51-17.1c21.74-9.06,27.18-50.74,27.18-50.74l.82-.49,3.71-2.22v-.01l13.32-7.99.27-.16,5.38,3.58,10.93,7.29c38.24,28.12,77.18,27.62,101.21,23.19,14.69-2.71,23.82-6.88,23.82-6.88l26.36-8.79.82-.27.81.12,15.46,2.34.28.05,1.28.19-3.58,24.75-5.19,35.97c13.71,7.26,25.9,20.9,36.56,37.71q3.54,5.58,6.86,11.61c2.88,5.2,5.63,10.61,8.25,16.15.32.66.63,1.33.94,2,1.01,2.17,2.01,4.36,2.98005,6.56H473.75c.36-2.21.72-4.32,1.07-6.35a1.54822,1.54822,0,0,0,.04-.21c.13-.68.25-1.34.36-2C476.44,736.79541,477.62,731.28546,478.55,727.24542Z"
     transform="translate(-49.50001 -116.97455)"
     fill="#2f2e41"
     id="path153" />
  <path
     d="M467.73451,378.93759s19.93284,36.24152,12.68454,81.54343S502.164,618.13166,502.164,618.13166l21.74492-5.43623s-14.49661-94.228-10.87246-115.97289,3.62415-106.9125-14.49661-117.78495S467.73451,378.93759,467.73451,378.93759Z"
     transform="translate(-49.50001 -116.97455)"
     fill="#2f2e41"
     id="path155" />
  <path
     d="M678.47286,416.59979l7.61685,200.62583,14.49661,9.06038s20.83888-220.16727,9.96642-220.16727H688.4302A9.97043,9.97043,0,0,0,678.47286,416.59979Z"
     transform="translate(-49.50001 -116.97455)"
     fill="#2f2e41"
     id="path157" />
  <circle
     cx="462.63037"
     cy="487.56653"
     r="9.06038"
     fill="#6c63ff"
     id="circle159" />
  <circle
     cx="643.838"
     cy="496.62692"
     r="9.06038"
     fill="#6c63ff"
     id="circle161" />
  <polygon
     points="522.067,126.963 542.362,105.218 539.644,126.963 610.133,126.963 605.784,105.218 614.482,126.963 625.717,126.963 625.717,58.104 506.12,58.104 506.12,126.963 "
     id="polygon163"
     transform="translate(1.60024,9.919947)"
     style="fill:#2f2e41" />
  <ellipse
     cx="490.48151"
     cy="138.26068"
     rx="5.4362302"
     ry="9.9664202"
     id="ellipse165"
     style="fill:#ffb8b8" />
  <ellipse
     cx="632.87115"
     cy="143.98016"
     rx="5.4362302"
     ry="9.9664202"
     id="ellipse167"
     style="fill:#ffb8b8" />
  <path
     d="M721.4252,612.69543s-82.44948-15.40265-87.8857,11.77849,91.50985,15.40265,91.50985,15.40265Z"
     transform="translate(-49.50001 -116.97455)"
     fill="#ffb8b8"
     id="path169" />
  <path
     d="M719.61312,426.05157S917.12944,583.70221,880.88791,621.75581,706.92859,648.937,706.92859,648.937l9.06038-45.3019,79.73135-9.06038L755.85465,554.709l-36.24153,3.62415Z"
     transform="translate(-49.50001 -116.97455)"
     fill="#d0cde1"
     id="path171" />
  <path
     d="M427.86884,688.80263l25.36906,19.93284s18.12077,56.17437,45.30191,39.86568S473.17074,674.306,473.17074,674.306l-30.80529-10.87246Z"
     transform="translate(-49.50001 -116.97455)"
     fill="#ffb8b8"
     id="path173" />
  <path
     d="M453.2379,397.05835l-25.30065,7.61381s-175.83982,130.104-183.08812,166.34551S279.27858,627.192,279.27858,627.192l157.65064,74.29513,16.30868-43.48983-74.29513-38.05361s5.43623-10.87245-16.30868-12.68453S337.265,581.89013,337.265,581.89013s43.48983-67.04682,67.04682-52.55021,30.8053,25.36907,30.8053,25.36907Z"
     transform="translate(-49.50001 -116.97455)"
     fill="#d0cde1"
     id="path175" />
  <path
     d="M814.1,733.45544v6.07a13.34008,13.34008,0,0,1-.91,4.87,13.68227,13.68227,0,0,1-.97,2,13.4373,13.4373,0,0,1-11.55,6.56H354.12a13.43736,13.43736,0,0,1-11.55-6.56,13.68842,13.68842,0,0,1-.97-2,13.34153,13.34153,0,0,1-.91-4.87v-6.07a13.42641,13.42641,0,0,1,13.43-13.43h25.74v-2.83a.55908.55908,0,0,1,.56-.56h13.43a.55908.55908,0,0,1,.56.56v2.83h8.39v-2.83a.55908.55908,0,0,1,.56-.56h13.43a.55908.55908,0,0,1,.56.56v2.83h8.4v-2.83a.55908.55908,0,0,1,.56-.56h13.43a.55908.55908,0,0,1,.56.56v2.83h8.39v-2.83a.55908.55908,0,0,1,.56-.56h13.43a.55908.55908,0,0,1,.56.56v2.83h8.39v-2.83a.55908.55908,0,0,1,.56-.56h13.43a.55908.55908,0,0,1,.56.56v2.83h8.4v-2.83a.55908.55908,0,0,1,.56-.56h13.43a.55908.55908,0,0,1,.56.56v2.83h8.39v-2.83a.55908.55908,0,0,1,.56-.56h105.2a.55908.55908,0,0,1,.56.56v2.83h8.4v-2.83a.55908.55908,0,0,1,.56-.56h13.43a.56552.56552,0,0,1,.56.56v2.83h8.39v-2.83a.55908.55908,0,0,1,.56-.56h13.43a.55908.55908,0,0,1,.56.56v2.83h8.39v-2.83a.55908.55908,0,0,1,.56-.56h13.43a.55908.55908,0,0,1,.56.56v2.83h8.4v-2.83a.55908.55908,0,0,1,.56-.56h13.43a.557.557,0,0,1,.55.56v2.83h8.4v-2.83a.55908.55908,0,0,1,.56-.56H738a.55908.55908,0,0,1,.56.56v2.83h8.39v-2.83a.55908.55908,0,0,1,.56-.56h13.43a.55908.55908,0,0,1,.56.56v2.83h39.17A13.42636,13.42636,0,0,1,814.1,733.45544Z"
     transform="translate(-49.50001 -116.97455)"
     fill="#3f3d56"
     id="path177" />
  <rect
     x="161.44819"
     y="627.41618"
     width="732.99951"
     height="2"
     fill="#3f3d56"
     id="rect179" />
  <path
     d="M778.14246,477.82126H611.69957v-3.43053H536.22789v3.43053h-167.129a11.25861,11.25861,0,0,0-11.25861,11.25861v227.9115A11.25864,11.25864,0,0,0,369.09889,728.25H778.14246a11.25864,11.25864,0,0,0,11.25861-11.25865V489.07987A11.2586,11.2586,0,0,0,778.14246,477.82126Z"
     transform="translate(-49.50001 -116.97455)"
     fill="#3f3d56"
     id="path181" />
  <circle
     cx="524.44819"
     cy="440.41618"
     r="25"
     fill="none"
     stroke="#d0cde1"
     stroke-miterlimit="10"
     stroke-width="2"
     id="circle183" />
  <circle
     cx="516.44819"
     cy="449.41618"
     r="25"
     fill="#d0cde1"
     id="circle185" />
  <rect
     x="26.02015"
     y="663.55077"
     width="189"
     height="2.26159"
     fill="#3f3d56"
     id="rect187" />
  <rect
     x="851.02015"
     y="663.55077"
     width="189"
     height="2.26159"
     fill="#3f3d56"
     id="rect189" />
  <path
     d="M185.63919,707.69176c-19.911,32.5064-13.06067,72.9409-13.06067,72.9409s39.1325-12.26879,59.04353-44.7752,13.06067-72.9409,13.06067-72.9409S205.55022,675.18536,185.63919,707.69176Z"
     transform="translate(-49.50001 -116.97455)"
     fill="#3f3d56"
     id="path191" />
  <path
     d="M171.76594,780.90107l-1.13209-.17932c-.40938-.06491-41.158-6.81651-65.56214-36.01491-24.40427-29.19937-23.817-70.4997-23.809-70.91351l.02429-1.14573,1.13209.17932c.40939.06492,41.158,6.81651,65.56228,36.01588h0c24.40414,29.19841,23.81684,70.49874,23.80885,70.91255Z"
     transform="translate(-49.50001 -116.97455)"
     fill="#6c63ff"
     id="path193" />
  <path
     d="M173.37365,781.92912l-1.09375-.34277c-.39551-.124-39.7207-12.75586-59.59766-45.20605-19.87695-32.45118-13.26269-73.22266-13.19433-73.63086l.1914-1.12989,1.09375.34278c.39551.124,39.72071,12.75586,59.59766,45.207h0c19.87695,32.45019,13.2627,73.22168,13.19434,73.62988Zm-72.081-117.67773c-.90528,6.84277-4.51368,42.33594,13.09472,71.084,17.60938,28.74707,50.86719,41.65821,57.373,43.96192.90527-6.84278,4.51367-42.33594-13.09473-71.083h0C141.05627,679.46623,107.79846,666.5551,101.2926,664.25139Z"
     transform="translate(-49.50001 -116.97455)"
     fill="#3f3d56"
     id="path195" />
  <circle
     cx="124.32091"
     cy="536.32762"
     r="22"
     fill="#3f3d56"
     id="circle197" />
  <polygon
     points="399.789 258.254 273.582 131.051 214 131.051 214 129.051 274.417 129.051 274.711 129.348 401.211 256.848 399.789 258.254"
     fill="#3f3d56"
     id="polygon199" />
  <polygon
     points="696.211 254.254 822.417 127.051 882 127.051 882 125.051 821.582 125.051 821.289 125.348 694.789 252.848 696.211 254.254"
     fill="#3f3d56"
     id="polygon201" />
  <rect
     x="899.99998"
     y="73.14045"
     width="28.95522"
     height="28.95522"
     fill="#6c63ff"
     id="rect217" />
  <rect
     x="899.99998"
     y="116.57329"
     width="28.95522"
     height="28.95522"
     fill="#6c63ff"
     id="rect219" />
  <rect
     x="899.99998"
     y="160.00612"
     width="28.95522"
     height="28.95522"
     fill="#6c63ff"
     id="rect221" />
  <path
     d="M986.45507,213.07037H955.5V182.1148h30.95508Zm-28.95508-2h26.95508V184.1148H957.5Z"
     transform="translate(-49.50001 -116.97455)"
     fill="#3f3d56"
     id="path223" />
  <path
     d="M986.45507,256.503H955.5V225.54791h30.95508Zm-28.95508-2h26.95508V227.54791H957.5Z"
     transform="translate(-49.50001 -116.97455)"
     fill="#3f3d56"
     id="path227" />
  <path
     d="M986.45507,299.93561H955.5V268.98053h30.95508Zm-28.95508-2h26.95508V270.98053H957.5Z"
     transform="translate(-49.50001 -116.97455)"
     fill="#3f3d56"
     id="path231" />
  <circle
     cx="188.99998"
     cy="83.0509"
     r="16"
     fill="#6c63ff"
     id="circle233" />
  <circle
     cx="188.99998"
     cy="131.0509"
     r="16"
     fill="#6c63ff"
     id="circle235" />
  <circle
     cx="188.99998"
     cy="174.0509"
     r="16"
     fill="#6c63ff"
     id="circle237" />
  <path
     d="M230.5,213.02545a17,17,0,1,1,17-17A17.019,17.019,0,0,1,230.5,213.02545Zm0-32a15,15,0,1,0,15,15A15.017,15.017,0,0,0,230.5,181.02545Z"
     transform="translate(-49.50001 -116.97455)"
     fill="#3f3d56"
     id="path239" />
  <path
     d="M230.5,261.02545a17,17,0,1,1,17-17A17.019,17.019,0,0,1,230.5,261.02545Zm0-32a15,15,0,1,0,15,15A15.017,15.017,0,0,0,230.5,229.02545Z"
     transform="translate(-49.50001 -116.97455)"
     fill="#3f3d56"
     id="path241" />
  <path
     d="M230.5,304.02545a17,17,0,1,1,17-17A17.019,17.019,0,0,1,230.5,304.02545Zm0-32a15,15,0,1,0,15,15A15.017,15.017,0,0,0,230.5,272.02545Z"
     transform="translate(-49.50001 -116.97455)"
     fill="#3f3d56"
     id="path243" />
  <path
     d="M1038.5,713.02545h-2v-15a3.00328,3.00328,0,0,1,3-3h5a1.00067,1.00067,0,0,0,1-1v-10a1.00067,1.00067,0,0,0-1-1h-5a3.00328,3.00328,0,0,1-3-3v-5a1.00067,1.00067,0,0,0-1-1h-9a3.00328,3.00328,0,0,1-3-3v-1a1.00067,1.00067,0,0,0-1-1h-36a1.00067,1.00067,0,0,0-1,1v1a3.00328,3.00328,0,0,1-3,3h-9a1.00067,1.00067,0,0,0-1,1v5a3.00328,3.00328,0,0,1-3,3h-5a1.00067,1.00067,0,0,0-1,1v10a1.00067,1.00067,0,0,0,1,1h6a3.00328,3.00328,0,0,1,3,3v15h-2v-15a1.00067,1.00067,0,0,0-1-1h-6a3.00328,3.00328,0,0,1-3-3v-10a3.00328,3.00328,0,0,1,3-3h5a1.00067,1.00067,0,0,0,1-1v-5a3.00328,3.00328,0,0,1,3-3h9a1.00067,1.00067,0,0,0,1-1v-1a3.00328,3.00328,0,0,1,3-3h36a3.00328,3.00328,0,0,1,3,3v1a1.00067,1.00067,0,0,0,1,1h9a3.00328,3.00328,0,0,1,3,3v5a1.00067,1.00067,0,0,0,1,1h5a3.00328,3.00328,0,0,1,3,3v10a3.00328,3.00328,0,0,1-3,3h-5a1.00067,1.00067,0,0,0-1,1Z"
     transform="translate(-49.50001 -116.97455)"
     fill="#3f3d56"
     id="path245" />
  <path
     d="M1035.5,783.02545h-61a3.00328,3.00328,0,0,1-3-3v-43h2v43a1.00067,1.00067,0,0,0,1,1h61a1.00067,1.00067,0,0,0,1-1v-43h2v43A3.00328,3.00328,0,0,1,1035.5,783.02545Z"
     transform="translate(-49.50001 -116.97455)"
     fill="#3f3d56"
     id="path247" />
  <rect
     x="921.99998"
     y="603.0509"
     width="79"
     height="24"
     rx="2"
     fill="#6c63ff"
     id="rect249" />
  <path
     d="M1042,738.02545H967a3.00328,3.00328,0,0,1-3-3v-20a3.00328,3.00328,0,0,1,3-3h75a3.00328,3.00328,0,0,1,3,3v20A3.00328,3.00328,0,0,1,1042,738.02545Zm-75-24a1.00067,1.00067,0,0,0-1,1v20a1.00067,1.00067,0,0,0,1,1h75a1.00067,1.00067,0,0,0,1-1v-20a1.00067,1.00067,0,0,0-1-1Z"
     transform="translate(-49.50001 -116.97455)"
     fill="#3f3d56"
     id="path251" />
  <path
     d="M1002.5,660.02545v0a249.6283,249.6283,0,0,1-2.09463-54.11121L1002.5,576.02545h0c-11.54175,22.96553-8.93335,53.1922,0,83.99993Z"
     transform="translate(-49.50001 -116.97455)"
     fill="#d0cde1"
     id="path253" />
  <path
     d="M1011.5,665.02545v0a183.49687,183.49687,0,0,1-1.00779-32.20905L1011.5,615.02545h0c-5.55309,13.67-4.29811,31.662,0,50Z"
     transform="translate(-49.50001 -116.97455)"
     fill="#d0cde1"
     id="path255" />
  <text
     xml:space="preserve"
     style="font-style:normal;font-weight:normal;font-size:29.37262344px;line-height:1.25;font-family:sans-serif;letter-spacing:0px;word-spacing:0px;fill:#000000;fill-opacity:1;stroke:none;stroke-width:0.73431557"
     x="8.7541046"
     y="136.8949"
     id="text278"
     transform="scale(1.0170409,0.98324464)"><tspan
       sodipodi:role="line"
       id="tspan276"
       x="8.7541046"
       y="136.8949"
       style="font-style:normal;font-variant:normal;font-weight:normal;font-stretch:normal;font-family:Raleway;-inkscape-font-specification:Raleway;stroke-width:0.73431557">Supervisor</tspan></text>
  <text
     xml:space="preserve"
     style="font-style:normal;font-weight:normal;font-size:27.53783226px;line-height:1.25;font-family:sans-serif;letter-spacing:0px;word-spacing:0px;fill:#000000;fill-opacity:1;stroke:none;stroke-width:0.68844581"
     x="10.442129"
     y="179.90501"
     id="text282"
     transform="scale(1.0154708,0.98476488)"><tspan
       sodipodi:role="line"
       id="tspan280"
       x="10.442129"
       y="179.90501"
       style="font-style:normal;font-variant:normal;font-weight:normal;font-stretch:normal;font-family:Raleway;-inkscape-font-specification:Raleway;stroke-width:0.68844581">Head Clerk</tspan></text>
  <text
     xml:space="preserve"
     style="font-style:normal;font-weight:normal;font-size:29.29380035px;line-height:1.25;font-family:sans-serif;letter-spacing:0px;word-spacing:0px;fill:#000000;fill-opacity:1;stroke:none;stroke-width:0.73234504"
     x="28.746786"
     y="93.202652"
     id="text286"
     transform="scale(1.0560286,0.94694404)"><tspan
       sodipodi:role="line"
       id="tspan284"
       x="28.746786"
       y="93.202652"
       style="font-style:normal;font-variant:normal;font-weight:normal;font-stretch:normal;font-family:Raleway;-inkscape-font-specification:Raleway;stroke-width:0.73234504">Manager</tspan></text>
  <text
     xml:space="preserve"
     style="font-style:normal;font-weight:normal;font-size:29.62048721px;line-height:1.25;font-family:sans-serif;letter-spacing:0px;word-spacing:0px;fill:#000000;fill-opacity:1;stroke:none;stroke-width:0.74051213"
     x="1047.1051"
     y="82.586548"
     id="text290"
     transform="scale(0.89966411,1.1115259)"><tspan
       sodipodi:role="line"
       id="tspan288"
       x="1047.1051"
       y="82.586548"
       style="font-style:normal;font-variant:normal;font-weight:normal;font-stretch:normal;font-family:Raleway;-inkscape-font-specification:Raleway;stroke-width:0.74051213">Receptionist</tspan></text>
  <text
     xml:space="preserve"
     style="font-style:normal;font-weight:normal;font-size:32.52959824px;line-height:1.25;font-family:sans-serif;letter-spacing:0px;word-spacing:0px;fill:#000000;fill-opacity:1;stroke:none;stroke-width:0.81323999"
     x="953.39203"
     y="135.36781"
     id="text302"
     transform="scale(0.98758475,1.0125713)"><tspan
       sodipodi:role="line"
       id="tspan300"
       x="953.39203"
       y="135.36781"
       style="font-style:normal;font-variant:normal;font-weight:normal;font-stretch:normal;font-family:Raleway;-inkscape-font-specification:Raleway;stroke-width:0.81323999">Librarian</tspan></text>
  <text
     xml:space="preserve"
     style="font-style:normal;font-weight:normal;font-size:28.72245598px;line-height:1.25;font-family:sans-serif;letter-spacing:0px;word-spacing:0px;fill:#000000;fill-opacity:1;stroke:none;stroke-width:0.71806145"
     x="903.74426"
     y="186.28035"
     id="text306"
     transform="scale(1.0415314,0.96012466)"><tspan
       sodipodi:role="line"
       id="tspan304"
       x="903.74426"
       y="186.28035"
       style="font-style:normal;font-variant:normal;font-weight:normal;font-stretch:normal;font-family:Raleway;-inkscape-font-specification:Raleway;stroke-width:0.71806145">Copywriter</tspan></text>
</svg>
